<svg xmlns="http://www.w3.org/2000/svg" xmlns:xlink="http://www.w3.org/1999/xlink" width="500" zoomAndPan="magnify" viewBox="0 0 375 374.999991" height="500" preserveAspectRatio="xMidYMid meet" version="1.0"><defs><g/><clipPath id="719416b19d"><path d="M 7 130 L 169 130 L 169 291 L 7 291 Z M 7 130 " clip-rule="nonzero"/></clipPath><clipPath id="6fc3ca239c"><path d="M 47.066406 125.152344 L 173.421875 251.507812 L 128.679688 296.25 L 2.324219 169.894531 Z M 47.066406 125.152344 " clip-rule="nonzero"/></clipPath><clipPath id="6143dbe222"><path d="M 56.082031 134.167969 L 164.394531 242.480469 C 166.785156 244.871094 168.128906 248.117188 168.128906 251.496094 C 168.128906 254.878906 166.785156 258.121094 164.394531 260.511719 L 137.683594 287.222656 C 135.292969 289.613281 132.050781 290.957031 128.667969 290.957031 C 125.289062 290.957031 122.042969 289.613281 119.652344 287.222656 L 11.339844 178.910156 C 8.949219 176.519531 7.605469 173.273438 7.605469 169.894531 C 7.605469 166.511719 8.949219 163.269531 11.339844 160.878906 L 38.050781 134.167969 C 40.441406 131.777344 43.683594 130.433594 47.066406 130.433594 C 50.445312 130.433594 53.691406 131.777344 56.082031 134.167969 Z M 56.082031 134.167969 " clip-rule="nonzero"/></clipPath><clipPath id="928e20a55c"><path d="M 66 77 L 178 77 L 178 189 L 66 189 Z M 66 77 " clip-rule="nonzero"/></clipPath><clipPath id="38ab972b6c"><path d="M 111.75 70.792969 L 184.144531 143.1875 L 132.519531 194.8125 L 60.128906 122.417969 Z M 111.75 70.792969 " clip-rule="nonzero"/></clipPath><clipPath id="7199a836fb"><path d="M 122.359375 81.402344 L 173.449219 132.496094 C 179.308594 138.351562 179.308594 147.851562 173.449219 153.707031 L 143.039062 184.117188 C 137.183594 189.976562 127.683594 189.976562 121.828125 184.117188 L 70.734375 133.023438 C 64.875 127.167969 64.875 117.667969 70.734375 111.8125 L 101.144531 81.402344 C 107.003906 75.542969 116.5 75.542969 122.359375 81.402344 Z M 122.359375 81.402344 " clip-rule="nonzero"/></clipPath><clipPath id="46f9fcfb45"><path d="M 142 150 L 229 150 L 229 237 L 142 237 Z M 142 150 " clip-rule="nonzero"/></clipPath><clipPath id="0c00e628f6"><path d="M 191.699219 145.417969 L 233.550781 187.269531 L 179.273438 241.546875 L 137.417969 199.695312 Z M 191.699219 145.417969 " clip-rule="nonzero"/></clipPath><clipPath id="56516a910b"><path d="M 199.652344 153.371094 L 225.597656 179.316406 C 229.992188 183.707031 229.992188 190.832031 225.597656 195.226562 L 187.3125 233.507812 C 182.921875 237.902344 175.796875 237.902344 171.40625 233.507812 L 145.460938 207.5625 C 141.066406 203.171875 141.066406 196.046875 145.460938 191.652344 L 183.742188 153.371094 C 188.136719 148.976562 195.261719 148.976562 199.652344 153.371094 Z M 199.652344 153.371094 " clip-rule="nonzero"/></clipPath></defs><g clip-path="url(#719416b19d)"><g clip-path="url(#6fc3ca239c)"><g clip-path="url(#6143dbe222)"><path fill="#021680" d="M 47.066406 125.152344 L 173.421875 251.507812 L 128.679688 296.25 L 2.324219 169.894531 Z M 47.066406 125.152344 " fill-opacity="1" fill-rule="nonzero"/></g></g></g><g clip-path="url(#928e20a55c)"><g clip-path="url(#38ab972b6c)"><g clip-path="url(#7199a836fb)"><path fill="#0696c4" d="M 111.75 70.792969 L 184.144531 143.1875 L 132.519531 194.8125 L 60.128906 122.417969 Z M 111.75 70.792969 " fill-opacity="1" fill-rule="nonzero"/></g></g></g><g clip-path="url(#46f9fcfb45)"><g clip-path="url(#0c00e628f6)"><g clip-path="url(#56516a910b)"><path fill="#df1010" d="M 191.699219 145.417969 L 233.550781 187.269531 L 179.4375 241.386719 L 137.582031 199.53125 Z M 191.699219 145.417969 " fill-opacity="1" fill-rule="nonzero"/></g></g></g><g fill="#ffffff" fill-opacity="1"><g transform="translate(229.524312, 197.404096)"><g><path d="M 0.515625 -32.65625 L 15.625 -32.65625 L 26.3125 -8.578125 L 35.265625 -32.65625 L 38.859375 -32.65625 L 26.53125 0 L 14.96875 0 Z M 0.515625 -32.65625 "/></g></g></g><g fill="#ffffff" fill-opacity="1"><g transform="translate(268.842327, 197.404096)"><g><path d="M 1.3125 -32.65625 L 16.515625 -32.65625 L 16.515625 0 L 1.3125 0 Z M 1.3125 -32.65625 "/></g></g></g><g fill="#ffffff" fill-opacity="1"><g transform="translate(286.70567, 197.404096)"><g><path d="M 1.3125 -32.65625 L 17.671875 -32.65625 L 17.671875 -2.796875 L 35.40625 -2.796875 L 35.40625 0 L 1.3125 0 Z M 1.3125 -32.65625 "/></g></g></g><g fill="#ffffff" fill-opacity="1"><g transform="translate(323.458448, 197.404096)"><g><path d="M 23.140625 0.234375 C 18.972656 0.234375 15.207031 -0.398438 11.84375 -1.671875 C 8.488281 -2.953125 5.835938 -4.84375 3.890625 -7.34375 C 1.953125 -9.84375 0.984375 -12.851562 0.984375 -16.375 C 0.984375 -19.851562 1.960938 -22.835938 3.921875 -25.328125 C 5.878906 -27.816406 8.53125 -29.703125 11.875 -30.984375 C 15.21875 -32.273438 18.972656 -32.921875 23.140625 -32.921875 C 27.273438 -32.921875 31.007812 -32.273438 34.34375 -30.984375 C 37.6875 -29.703125 40.328125 -27.816406 42.265625 -25.328125 C 44.210938 -22.835938 45.1875 -19.851562 45.1875 -16.375 C 45.1875 -12.851562 44.210938 -9.84375 42.265625 -7.34375 C 40.328125 -4.84375 37.6875 -2.953125 34.34375 -1.671875 C 31.007812 -0.398438 27.273438 0.234375 23.140625 0.234375 Z M 23.140625 -2.515625 C 24.441406 -2.515625 25.40625 -3.109375 26.03125 -4.296875 C 26.550781 -5.191406 26.90625 -6.789062 27.09375 -9.09375 C 27.1875 -10.300781 27.234375 -12.726562 27.234375 -16.375 C 27.234375 -20.039062 27.15625 -22.632812 27 -24.15625 C 26.90625 -26.019531 26.566406 -27.4375 25.984375 -28.40625 C 25.359375 -29.582031 24.410156 -30.171875 23.140625 -30.171875 C 21.828125 -30.171875 20.847656 -29.582031 20.203125 -28.40625 C 19.671875 -27.46875 19.328125 -26.050781 19.171875 -24.15625 C 19.046875 -22.539062 18.984375 -19.945312 18.984375 -16.375 C 18.984375 -12.332031 19.03125 -9.90625 19.125 -9.09375 C 19.25 -6.945312 19.59375 -5.347656 20.15625 -4.296875 C 20.800781 -3.109375 21.796875 -2.515625 23.140625 -2.515625 Z M 23.140625 -2.515625 "/></g></g></g></svg>