<svg xmlns="http://www.w3.org/2000/svg" xmlns:xlink="http://www.w3.org/1999/xlink" width="500" zoomAndPan="magnify" viewBox="0 0 375 374.999991" height="500" preserveAspectRatio="xMidYMid meet" version="1.0"><defs><clipPath id="2b7724ee0e"><path d="M 33 100 L 271 100 L 271 338 L 33 338 Z M 33 100 " clip-rule="nonzero"/></clipPath><clipPath id="425cc73a52"><path d="M 93.105469 95.554688 L 275.480469 277.929688 L 210.90625 342.503906 L 28.53125 160.132812 Z M 93.105469 95.554688 " clip-rule="nonzero"/></clipPath><clipPath id="604b7dc5ce"><path d="M 102.121094 104.570312 L 266.445312 268.894531 C 271.425781 273.875 271.425781 281.949219 266.445312 286.925781 L 219.902344 333.472656 C 214.925781 338.449219 206.851562 338.449219 201.871094 333.472656 L 37.546875 169.148438 C 32.570312 164.167969 32.570312 156.09375 37.546875 151.117188 L 84.089844 104.570312 C 89.070312 99.59375 97.144531 99.59375 102.121094 104.570312 Z M 102.121094 104.570312 " clip-rule="nonzero"/></clipPath><clipPath id="1a60e5be9d"><path d="M 118 23 L 285 23 L 285 190 L 118 190 Z M 118 23 " clip-rule="nonzero"/></clipPath><clipPath id="17af252f65"><path d="M 186.46875 17.097656 L 290.957031 121.585938 L 216.449219 196.097656 L 111.960938 91.609375 Z M 186.46875 17.097656 " clip-rule="nonzero"/></clipPath><clipPath id="488f7a15fe"><path d="M 197.074219 27.707031 L 280.222656 110.855469 C 286.082031 116.710938 286.082031 126.210938 280.222656 132.066406 L 226.929688 185.363281 C 221.070312 191.222656 211.574219 191.222656 205.714844 185.363281 L 122.566406 102.214844 C 116.707031 96.359375 116.707031 86.859375 122.566406 81.003906 L 175.863281 27.707031 C 181.71875 21.847656 191.21875 21.847656 197.074219 27.707031 Z M 197.074219 27.707031 " clip-rule="nonzero"/></clipPath><clipPath id="1110d172a6"><path d="M 228 129 L 358 129 L 358 259 L 228 259 Z M 228 129 " clip-rule="nonzero"/></clipPath><clipPath id="0f72922eb6"><path d="M 301.859375 124.804688 L 362.265625 185.210938 L 283.925781 263.554688 L 223.515625 203.144531 Z M 301.859375 124.804688 " clip-rule="nonzero"/></clipPath><clipPath id="fbd9d691f2"><path d="M 309.8125 132.757812 L 354.3125 177.257812 C 356.421875 179.367188 357.609375 182.226562 357.609375 185.210938 C 357.609375 188.195312 356.421875 191.054688 354.3125 193.164062 L 292.003906 255.472656 C 289.894531 257.582031 287.035156 258.769531 284.050781 258.769531 C 281.066406 258.769531 278.203125 257.582031 276.09375 255.472656 L 231.597656 210.976562 C 229.488281 208.867188 228.300781 206.003906 228.300781 203.019531 C 228.300781 200.035156 229.488281 197.175781 231.597656 195.066406 L 293.902344 132.757812 C 296.015625 130.648438 298.875 129.460938 301.859375 129.460938 C 304.84375 129.460938 307.703125 130.648438 309.8125 132.757812 Z M 309.8125 132.757812 " clip-rule="nonzero"/></clipPath></defs><g clip-path="url(#2b7724ee0e)"><g clip-path="url(#425cc73a52)"><g clip-path="url(#604b7dc5ce)"><path fill="#021680" d="M 93.105469 95.554688 L 275.480469 277.929688 L 210.90625 342.503906 L 28.53125 160.132812 Z M 93.105469 95.554688 " fill-opacity="1" fill-rule="nonzero"/></g></g></g><g clip-path="url(#1a60e5be9d)"><g clip-path="url(#17af252f65)"><g clip-path="url(#488f7a15fe)"><path fill="#0696c4" d="M 186.46875 17.097656 L 290.957031 121.585938 L 216.449219 196.097656 L 111.960938 91.609375 Z M 186.46875 17.097656 " fill-opacity="1" fill-rule="nonzero"/></g></g></g><g clip-path="url(#1110d172a6)"><g clip-path="url(#0f72922eb6)"><g clip-path="url(#fbd9d691f2)"><path fill="#df1010" d="M 301.859375 124.804688 L 362.265625 185.210938 L 284.160156 263.316406 L 223.753906 202.910156 Z M 301.859375 124.804688 " fill-opacity="1" fill-rule="nonzero"/></g></g></g></svg>