<svg xmlns="http://www.w3.org/2000/svg" xmlns:xlink="http://www.w3.org/1999/xlink" width="500" zoomAndPan="magnify" viewBox="0 0 375 374.999991" height="500" preserveAspectRatio="xMidYMid meet" version="1.0"><defs><clipPath id="5233ae4b65"><path d="M 77 134 L 238 134 L 238 295 L 77 295 Z M 77 134 " clip-rule="nonzero"/></clipPath><clipPath id="34cf2045fd"><path d="M 116.621094 129.140625 L 242.976562 255.496094 L 198.238281 300.234375 L 71.882812 173.878906 Z M 116.621094 129.140625 " clip-rule="nonzero"/></clipPath><clipPath id="f0268f5621"><path d="M 125.636719 138.15625 L 233.949219 246.46875 C 236.339844 248.859375 237.683594 252.101562 237.683594 255.484375 C 237.683594 258.863281 236.339844 262.109375 233.949219 264.5 L 207.242188 291.207031 C 204.847656 293.597656 201.605469 294.941406 198.226562 294.941406 C 194.84375 294.941406 191.601562 293.597656 189.210938 291.207031 L 80.898438 182.894531 C 78.503906 180.503906 77.164062 177.261719 77.164062 173.878906 C 77.164062 170.5 78.503906 167.253906 80.898438 164.863281 L 107.605469 138.15625 C 109.996094 135.765625 113.238281 134.421875 116.621094 134.421875 C 120.003906 134.421875 123.246094 135.765625 125.636719 138.15625 Z M 125.636719 138.15625 " clip-rule="nonzero"/></clipPath><clipPath id="64d8d13e8c"><path d="M 135 80 L 248 80 L 248 193 L 135 193 Z M 135 80 " clip-rule="nonzero"/></clipPath><clipPath id="cbf348e5d3"><path d="M 181.304688 74.78125 L 253.699219 147.175781 L 202.078125 198.796875 L 129.683594 126.40625 Z M 181.304688 74.78125 " clip-rule="nonzero"/></clipPath><clipPath id="f44d1a7779"><path d="M 191.914062 85.386719 L 243.007812 136.480469 C 248.863281 142.339844 248.863281 151.835938 243.007812 157.695312 L 212.597656 188.105469 C 206.738281 193.960938 197.242188 193.960938 191.382812 188.105469 L 140.289062 137.011719 C 134.433594 131.152344 134.433594 121.65625 140.289062 115.796875 L 170.699219 85.386719 C 176.558594 79.53125 186.054688 79.53125 191.914062 85.386719 Z M 191.914062 85.386719 " clip-rule="nonzero"/></clipPath><clipPath id="054f83c628"><path d="M 211 154 L 299 154 L 299 241 L 211 241 Z M 211 154 " clip-rule="nonzero"/></clipPath><clipPath id="81b41d5d27"><path d="M 261.253906 149.402344 L 303.105469 191.257812 L 248.828125 245.535156 L 206.976562 203.679688 Z M 261.253906 149.402344 " clip-rule="nonzero"/></clipPath><clipPath id="0cb12f1d33"><path d="M 269.207031 157.359375 L 295.152344 183.300781 C 299.546875 187.695312 299.546875 194.816406 295.152344 199.210938 L 256.871094 237.492188 C 252.476562 241.886719 245.351562 241.886719 240.960938 237.492188 L 215.015625 211.550781 C 210.621094 207.15625 210.621094 200.035156 215.015625 195.640625 L 253.300781 157.359375 C 257.691406 152.964844 264.816406 152.964844 269.207031 157.359375 Z M 269.207031 157.359375 " clip-rule="nonzero"/></clipPath></defs><g clip-path="url(#5233ae4b65)"><g clip-path="url(#34cf2045fd)"><g clip-path="url(#f0268f5621)"><path fill="#021680" d="M 116.621094 129.140625 L 242.976562 255.496094 L 198.238281 300.234375 L 71.882812 173.878906 Z M 116.621094 129.140625 " fill-opacity="1" fill-rule="nonzero"/></g></g></g><g clip-path="url(#64d8d13e8c)"><g clip-path="url(#cbf348e5d3)"><g clip-path="url(#f44d1a7779)"><path fill="#0696c4" d="M 181.304688 74.78125 L 253.699219 147.175781 L 202.078125 198.796875 L 129.683594 126.40625 Z M 181.304688 74.78125 " fill-opacity="1" fill-rule="nonzero"/></g></g></g><g clip-path="url(#054f83c628)"><g clip-path="url(#81b41d5d27)"><g clip-path="url(#0cb12f1d33)"><path fill="#df1010" d="M 261.253906 149.402344 L 303.105469 191.257812 L 248.992188 245.371094 L 207.140625 203.519531 Z M 261.253906 149.402344 " fill-opacity="1" fill-rule="nonzero"/></g></g></g></svg>